<?xml version="1.0" encoding="UTF-8" standalone="no"?>
<!-- Generator: Adobe Illustrator 22.1.0, SVG Export Plug-In . SVG Version: 6.00 Build 0)  -->

<svg
   version="1.1"
   id="Layer_1"
   x="0px"
   y="0px"
   viewBox="0 0 80 80"
   xml:space="preserve"
   sodipodi:docname="icon.svg"
   width="80"
   height="80"
   inkscape:version="1.1.2 (b8e25be833, 2022-02-05)"
   inkscape:export-filename="C:\Users\bhano\Downloads\icon-256x256.png"
   inkscape:export-xdpi="307.20001"
   inkscape:export-ydpi="307.20001"
   xmlns:inkscape="http://www.inkscape.org/namespaces/inkscape"
   xmlns:sodipodi="http://sodipodi.sourceforge.net/DTD/sodipodi-0.dtd"
   xmlns:xlink="http://www.w3.org/1999/xlink"
   xmlns="http://www.w3.org/2000/svg"
   xmlns:svg="http://www.w3.org/2000/svg"
   xmlns:rdf="http://www.w3.org/1999/02/22-rdf-syntax-ns#"
   xmlns:cc="http://creativecommons.org/ns#"
   xmlns:dc="http://purl.org/dc/elements/1.1/"><title
   id="title27464">Sharekar Icon</title><defs
   id="defs39"><linearGradient
     inkscape:collect="always"
     id="linearGradient15496"><stop
       style="stop-color:#ff8354;stop-opacity:1;"
       offset="0"
       id="stop15492" /><stop
       style="stop-color:#ffa172;stop-opacity:1"
       offset="1"
       id="stop15494" /></linearGradient><linearGradient
     inkscape:collect="always"
     xlink:href="#linearGradient15496"
     id="linearGradient15498"
     x1="88.368919"
     y1="179.3208"
     x2="145.82872"
     y2="179.82433"
     gradientUnits="userSpaceOnUse"
     gradientTransform="translate(85.09597,142.72322)" /></defs><sodipodi:namedview
   id="namedview37"
   pagecolor="#ffffff"
   bordercolor="#666666"
   borderopacity="1.0"
   inkscape:pageshadow="2"
   inkscape:pageopacity="0.0"
   inkscape:pagecheckerboard="0"
   showgrid="false"
   fit-margin-top="0"
   fit-margin-left="0"
   fit-margin-right="0"
   fit-margin-bottom="0"
   inkscape:zoom="3.9719514"
   inkscape:cx="87.488483"
   inkscape:cy="48.087195"
   inkscape:window-width="1920"
   inkscape:window-height="1017"
   inkscape:window-x="-8"
   inkscape:window-y="-8"
   inkscape:window-maximized="1"
   inkscape:current-layer="g34" />
<style
   type="text/css"
   id="style2">
	.st0{fill:#231F20;}
	.st1{fill:#FFEFE4;}
	.st2{fill:#69EBFC;}
	.st3{fill:#5FD4E3;}
	.st4{fill:#A1F1FC;}
	.st5{fill:#D476E2;}
	.st6{fill:#B665C2;}
	.st7{fill:#EA82FA;}
	.st8{fill:#FFF7F2;}
	.st9{fill:#FF8354;}
	.st10{fill:#FFA172;}
	.st11{fill:#6770E6;}
	.st12{fill:#5861C7;}
	.st13{fill:#E0734A;}
	.st14{fill:#EDD4C2;}
	.st15{fill:#CC6944;}
	.st16{fill:#858EFF;}
	.st17{fill:#C76642;}
	.st18{fill:#FFFFFF;}
	.st19{fill:#FFDEC7;}
	.st20{fill:#4E56B0;}
	.st21{fill:#94529E;}
	.st22{fill:#41B6C5;}
	.st23{fill:#9847A4;}
	.st24{fill:#C2552C;}
	.st25{fill:#CFB6A4;}
</style>
<g
   id="g34"
   transform="translate(-85.09597,-142.72322)">
	
	
	
	
	
	
	
	
	
	
	
	
	
	
	
<rect
   style="fill:url(#linearGradient15498);fill-opacity:1;stroke-width:2.26772;stroke-linejoin:round;stroke-miterlimit:4.2;stroke-dasharray:2.26772, 13.6063;stroke-opacity:0.291375"
   id="rect1617"
   width="80"
   height="80"
   x="85.09597"
   y="142.72322" /><path
   class="st8"
   d="m 139.70377,189.38929 c -2.63225,0 -5.02339,1.00937 -6.82801,2.65205 l -12.52431,-7.23104 c 0.18891,-0.77366 0.29866,-1.57611 0.29866,-2.40735 0,-0.59013 -0.0612,-1.16588 -0.15832,-1.72903 l 12.46674,-7.19685 c 1.79561,1.59771 4.15258,2.57647 6.74524,2.57647 5.61175,0 10.16195,-4.5502 10.16195,-10.16196 0,-5.61173 -4.5502,-10.16194 -10.16195,-10.16194 -5.61174,0 -10.16194,4.55021 -10.16194,10.16194 0,0.71969 0.0774,1.42139 0.21949,2.09789 l -12.25622,7.07631 c -1.8244,-1.74523 -4.29292,-2.82297 -7.01693,-2.82297 -5.61175,0 -10.16195,4.5502 -10.16195,10.16194 0,5.61175 4.5502,10.16196 10.16195,10.16196 2.47571,0 4.74273,-0.88702 6.50595,-2.35877 l 12.74382,7.35877 c -0.12774,0.64233 -0.19791,1.30624 -0.19791,1.98814 0,5.61174 4.55021,10.16195 10.16194,10.16195 5.61175,0 10.16196,-4.55021 10.16196,-10.16195 10e-4,-5.61534 -4.54841,-10.16556 -10.16016,-10.16556 z"
   id="path32"
   style="stroke-width:1" /></g>
<metadata
   id="metadata27462"><rdf:RDF><cc:Work
       rdf:about=""><dc:title>Sharekar Icon</dc:title><dc:creator><cc:Agent><dc:title>Madhav</dc:title></cc:Agent></dc:creator><dc:rights><cc:Agent><dc:title>Anju</dc:title></cc:Agent></dc:rights><dc:publisher><cc:Agent><dc:title>Anju and Madhav</dc:title></cc:Agent></dc:publisher></cc:Work></rdf:RDF></metadata></svg>
